# xmcd CD database file
#
# Track frame offsets:
#	150
#	32115
#	60510
#	90005
#	120417
#	139790
#	171585
#	193490
#	222990
#	237685
#
# Disc length: 3684 seconds
#
# Revision: 0
# Processed by: cddbd v1.5.1PL0 Copyright (c) Steve Scherf et al.
# Submitted via: CdAid (MTCDDB.DLL V2003.12.21)
#
DISCID=910e620a
DTITLE=Rev. Clay Evans - The Collection
DYEAR=1998
DGENRE=Gospel
TTITLE0=I'm Blessed
TTITLE1=I'm Going Through
TTITLE2=Room At The Cross/At The Cross
TTITLE3=Have You Got Good Religion
TTITLE4=Going To Be With The Lord
TTITLE5=What He's Done For Me
TTITLE6=God Said He Would Heal The Land
TTITLE7=Reach Beyond The Break
TTITLE8=I'm Yours Lord
TTITLE9=Things Are Going To Work Out Somehow
EXTD=ID3G:  38 YEAR: 1998
EXTT0=
EXTT1=
EXTT2=
EXTT3=
EXTT4=
EXTT5=
EXTT6=
EXTT7=
EXTT8=
EXTT9=
PLAYORDER=
